<svg xmlns="http://www.w3.org/2000/svg" viewBox="0 0 448 512"><!--!Font Awesome Free 6.6.0 by @fontawesome - https://fontawesome.com License - https://fontawesome.com/license/free Copyright 2024 Fonticons, Inc.--><path d="M400 64h-48V12c0-6.6-5.4-12-12-12h-40c-6.6 0-12 5.4-12 12v52H160V12c0-6.6-5.4-12-12-12h-40c-6.6 0-12 5.4-12 12v52H48C21.5 64 0 85.5 0 112v352c0 26.5 21.5 48 48 48h352c26.5 0 48-21.5 48-48V112c0-26.5-21.5-48-48-48zm-6 400H54a6 6 0 0 1 -6-6V160h352v298a6 6 0 0 1 -6 6zm-52.8-200.7L198.8 404.5c-4.7 4.7-12.3 4.6-17-.1l-75.1-75.7c-4.7-4.7-4.6-12.3 .1-17l22.7-22.5c4.7-4.7 12.3-4.6 17 .1l44.1 44.5 111.1-110.2c4.7-4.7 12.3-4.6 17 .1l22.5 22.7c4.7 4.7 4.6 12.3-.1 17z"/></svg>